<svg width="223" height="246" viewBox="0 0 223 246" fill="none" xmlns="http://www.w3.org/2000/svg">
<path opacity="0.5" d="M200.144 52.407C203.458 57.3674 203.458 64.2727 203.458 78.0832V203.458H208.375C212.448 203.458 215.75 206.76 215.75 210.833C215.75 214.906 212.448 218.208 208.375 218.208H11.7084C7.63527 218.208 4.33337 214.906 4.33337 210.833C4.33337 206.76 7.63527 203.458 11.7084 203.458H16.625V78.0832C16.625 64.2727 16.625 57.3674 19.9395 52.407C21.3743 50.2596 23.2181 48.4159 25.3655 46.981C29.7042 44.082 50.3102 43.7186 60.944 43.6731C60.9036 46.5385 60.904 49.5326 60.9043 52.6199L60.9044 53.4999V65.7916H36.2917C32.2186 65.7916 28.9167 69.0935 28.9167 73.1666C28.9167 77.2397 32.2186 80.5416 36.2917 80.5416H60.9044V95.2916H36.2917C32.2186 95.2916 28.9167 98.5935 28.9167 102.667C28.9167 106.74 32.2186 110.042 36.2917 110.042H60.9044V124.792H36.2917C32.2186 124.792 28.9167 128.093 28.9167 132.167C28.9167 136.24 32.2186 139.542 36.2917 139.542H60.9044V203.458H159.237V139.542H183.792C187.865 139.542 191.167 136.24 191.167 132.167C191.167 128.093 187.865 124.792 183.792 124.792H159.237V110.042H183.792C187.865 110.042 191.167 106.74 191.167 102.667C191.167 98.5935 187.865 95.2916 183.792 95.2916H159.237V80.5416H183.792C187.865 80.5416 191.167 77.2397 191.167 73.1666C191.167 69.0935 187.865 65.7916 183.792 65.7916H159.237V53.4999L159.237 52.6199C159.238 49.5327 159.238 46.5385 159.198 43.6731C169.831 43.7186 190.379 44.082 194.718 46.981C196.865 48.4159 198.709 50.2596 200.144 52.407Z" fill="#222222"/>
<path fill-rule="evenodd" clip-rule="evenodd" d="M100.208 14.1667H119.875C138.417 14.1667 147.688 14.1667 153.448 19.927C159.208 25.6872 159.208 34.9582 159.208 53.5001V203.458H173.958H203.458H208.375C212.448 203.458 215.75 206.76 215.75 210.833C215.75 214.907 212.448 218.208 208.375 218.208H11.7084C7.63527 218.208 4.33337 214.907 4.33337 210.833C4.33337 206.76 7.63527 203.458 11.7084 203.458H16.625H46.125H60.875V53.5001C60.875 34.9582 60.875 25.6872 66.6353 19.927C72.3955 14.1667 81.6665 14.1667 100.208 14.1667ZM110.042 173.958C114.115 173.958 117.417 177.26 117.417 181.333V203.458H102.667V181.333C102.667 177.26 105.969 173.958 110.042 173.958ZM90.375 132.167C86.3019 132.167 83 135.469 83 139.542C83 143.615 86.3019 146.917 90.375 146.917H129.708C133.781 146.917 137.083 143.615 137.083 139.542C137.083 135.469 133.781 132.167 129.708 132.167H90.375ZM83 110.042C83 105.969 86.3019 102.667 90.375 102.667H129.708C133.781 102.667 137.083 105.969 137.083 110.042C137.083 114.115 133.781 117.417 129.708 117.417H90.375C86.3019 117.417 83 114.115 83 110.042ZM90.375 78.0834C86.3019 78.0834 83 81.3853 83 85.4584C83 89.5315 86.3019 92.8334 90.375 92.8334H129.708C133.781 92.8334 137.083 89.5315 137.083 85.4584C137.083 81.3853 133.781 78.0834 129.708 78.0834H90.375ZM83 55.9584C83 51.8853 86.3019 48.5834 90.375 48.5834H129.708C133.781 48.5834 137.083 51.8853 137.083 55.9584C137.083 60.0315 133.781 63.3334 129.708 63.3334H90.375C86.3019 63.3334 83 60.0315 83 55.9584Z" fill="url(#paint0_linear_60_92)"/>
<defs>
<linearGradient id="paint0_linear_60_92" x1="20.8503" y1="-17.7148" x2="132.97" y2="233.991" gradientUnits="userSpaceOnUse">
<stop stop-color="#E08027"/>
<stop offset="0.46875" stop-color="#D79B2A"/>
<stop offset="1" stop-color="#D87B27"/>
</linearGradient>
</defs>
</svg>
