<svg width="249" height="226" viewBox="0 0 249 226" fill="none" xmlns="http://www.w3.org/2000/svg">
<path d="M13.304 89.8616C13.304 97.5881 16.6857 104.998 22.7051 110.462C28.7246 115.925 36.8888 118.994 45.4016 118.994C53.9144 118.994 62.0786 115.925 68.0981 110.462C74.1176 104.998 77.4993 97.5881 77.4993 89.8616H13.304Z" fill="#CECECE"/>
<path d="M31.2981 89.8616H13.304C13.3045 94.3846 14.4654 98.8455 16.6947 102.891C18.924 106.936 22.1604 110.455 26.1477 113.168C30.1349 115.881 34.7635 117.714 39.6667 118.522C44.5699 119.331 49.613 119.091 54.3967 117.824C47.7332 116.056 41.8804 112.376 37.7159 107.335C33.5514 102.293 31.2996 96.1626 31.2981 89.8616Z" fill="#5B5B5B"/>
<path d="M217.702 89.8616H235.696C235.696 94.3846 234.535 98.8455 232.305 102.891C230.076 106.936 226.84 110.455 222.852 113.168C218.865 115.881 214.237 117.714 209.333 118.522C204.43 119.331 199.387 119.091 194.603 117.824C201.267 116.056 207.12 112.376 211.284 107.335C215.449 102.293 217.7 96.1626 217.702 89.8616Z" fill="#C5CDCD"/>
<path d="M94.4751 150.111H154.525C158.388 150.111 162.092 151.504 164.824 153.983C167.555 156.462 169.089 159.824 169.089 163.33V181.163H79.9105V163.33C79.9105 159.824 81.445 156.462 84.1764 153.983C86.9078 151.504 90.6123 150.111 94.4751 150.111Z" fill="#CECECE"/>
<path d="M112.469 150.111H94.4751C90.6123 150.111 86.9078 151.504 84.1764 153.983C81.445 156.462 79.9105 159.824 79.9105 163.33V181.163H97.9047V163.33C97.9047 159.824 99.4391 156.462 102.171 153.983C104.902 151.504 108.606 150.111 112.469 150.111Z" fill="#AFAFAF"/>
<path d="M131.798 36.7285H117.202V150.111H131.798V36.7285Z" fill="#9E9E9E"/>
<path d="M124.5 54.2496C135.161 54.2496 143.804 46.4051 143.804 36.7285C143.804 27.0518 135.161 19.2073 124.5 19.2073C113.839 19.2073 105.196 27.0518 105.196 36.7285C105.196 46.4051 113.839 54.2496 124.5 54.2496Z" fill="#555555"/>
<path d="M124.5 44.4205C129.18 44.4205 132.975 40.9767 132.975 36.7286C132.975 32.4804 129.18 29.0366 124.5 29.0366C119.82 29.0366 116.025 32.4804 116.025 36.7286C116.025 40.9767 119.82 44.4205 124.5 44.4205Z" fill="#746E6F"/>
<path d="M176.023 181.165H72.9774C68.1272 181.165 64.1953 184.733 64.1953 189.135C64.1953 193.538 68.1272 197.106 72.9774 197.106H176.023C180.873 197.106 184.805 193.538 184.805 189.135C184.805 184.733 180.873 181.165 176.023 181.165Z" fill="#707070"/>
<path d="M82.1895 189.135C82.1895 187.021 83.1147 184.994 84.7617 183.499C86.4086 182.004 88.6424 181.165 90.9716 181.165H72.9774C70.6483 181.165 68.4145 182.004 66.7675 183.499C65.1206 184.994 64.1953 187.021 64.1953 189.135C64.1953 191.249 65.1206 193.277 66.7675 194.772C68.4145 196.267 70.6483 197.106 72.9774 197.106H90.9716C88.6424 197.106 86.4086 196.267 84.7617 194.772C83.1147 193.277 82.1895 191.249 82.1895 189.135Z" fill="#5B5B5B"/>
<path d="M150.701 161.334H98.2996C95.6808 161.334 93.5579 163.261 93.5579 165.638C93.5579 168.015 95.6808 169.941 98.2996 169.941H150.701C153.32 169.941 155.443 168.015 155.443 165.638C155.443 163.261 153.32 161.334 150.701 161.334Z" fill="#555555"/>
<path d="M134.434 36.725C134.433 34.942 133.85 33.1991 132.758 31.7169C131.666 30.2347 130.114 29.0796 128.299 28.3977C126.484 27.7158 124.486 27.5378 122.56 27.8861C120.633 28.2344 118.863 29.0934 117.474 30.3544C116.086 31.6155 115.14 33.222 114.757 34.9709C114.374 36.7198 114.571 38.5324 115.323 40.1797C116.075 41.827 117.348 43.2349 118.982 44.2255C120.615 45.216 122.535 45.7447 124.5 45.7447C127.134 45.7422 129.66 44.7909 131.522 43.0999C133.385 41.4088 134.432 39.1161 134.434 36.725ZM117.483 36.725C117.484 35.4658 117.896 34.2351 118.667 33.1884C119.439 32.1417 120.535 31.3261 121.817 30.8446C123.099 30.3632 124.509 30.2375 125.87 30.4836C127.23 30.7296 128.48 31.3362 129.461 32.2268C130.442 33.1174 131.11 34.252 131.38 35.487C131.651 36.7221 131.512 38.0022 130.981 39.1656C130.45 40.329 129.551 41.3233 128.397 42.023C127.244 42.7226 125.887 43.0961 124.5 43.0963C122.639 43.0944 120.855 42.4225 119.54 41.2279C118.225 40.0334 117.485 38.4139 117.484 36.725H117.483Z" fill="#141414"/>
<path d="M26.5759 205.469H9.06812C8.68117 205.469 8.31007 205.608 8.03646 205.856C7.76284 206.105 7.60913 206.442 7.60913 206.793C7.60913 207.144 7.76284 207.481 8.03646 207.729C8.31007 207.977 8.68117 208.117 9.06812 208.117H26.5759C26.9629 208.117 27.334 207.977 27.6076 207.729C27.8812 207.481 28.0349 207.144 28.0349 206.793C28.0349 206.442 27.8812 206.105 27.6076 205.856C27.334 205.608 26.9629 205.469 26.5759 205.469Z" fill="#141414"/>
<path d="M239.935 205.469H222.427C222.04 205.469 221.669 205.608 221.395 205.856C221.122 206.105 220.968 206.442 220.968 206.793C220.968 207.144 221.122 207.481 221.395 207.729C221.669 207.977 222.04 208.117 222.427 208.117H239.935C240.322 208.117 240.693 207.977 240.966 207.729C241.24 207.481 241.394 207.144 241.394 206.793C241.394 206.442 241.24 206.105 240.966 205.856C240.693 205.608 240.322 205.469 239.935 205.469Z" fill="#141414"/>
<path d="M212.505 205.469H36.495C36.108 205.469 35.7369 205.608 35.4633 205.856C35.1897 206.105 35.036 206.442 35.036 206.793C35.036 207.144 35.1897 207.481 35.4633 207.729C35.7369 207.977 36.108 208.117 36.495 208.117H212.505C212.892 208.117 213.263 207.977 213.537 207.729C213.81 207.481 213.964 207.144 213.964 206.793C213.964 206.442 213.81 206.105 213.537 205.856C213.263 205.608 212.892 205.469 212.505 205.469Z" fill="#141414"/>
<path d="M9.06519 198.431H239.935C240.322 198.431 240.693 198.291 240.967 198.043C241.24 197.795 241.394 197.458 241.394 197.106C241.394 196.755 241.24 196.418 240.967 196.17C240.693 195.922 240.322 195.782 239.935 195.782H183.167C184.626 194.493 185.629 192.839 186.046 191.03C186.463 189.221 186.276 187.34 185.509 185.628C184.742 183.916 183.429 182.451 181.739 181.42C180.049 180.389 178.059 179.839 176.023 179.84H170.548V163.332C170.544 159.476 168.854 155.779 165.85 153.053C162.846 150.326 158.773 148.793 154.525 148.788H133.254V53.7925C136.608 52.3717 139.484 50.163 141.582 47.3951C143.681 44.6272 144.926 41.4007 145.189 38.0493H201.138L170.226 89.2224H170.231C170.112 89.4158 170.048 89.6336 170.047 89.8554C170.047 97.9331 173.582 105.68 179.875 111.392C186.168 117.104 194.703 120.312 203.603 120.312C212.503 120.312 221.038 117.104 227.331 111.392C233.624 105.68 237.16 97.9331 237.16 89.8554C237.158 89.6336 237.095 89.4158 236.975 89.2224H236.981L204.883 36.0886C204.758 35.8804 204.572 35.7067 204.347 35.5858C204.122 35.4648 203.866 35.4009 203.604 35.4009H145.189C144.826 30.6452 142.489 26.1918 138.649 22.9396C134.809 19.6873 129.752 17.8787 124.5 17.8787C119.248 17.8787 114.191 19.6873 110.351 22.9396C106.511 26.1918 104.174 30.6452 103.811 35.4009H45.3988C45.1372 35.4009 44.8805 35.4648 44.6555 35.5858C44.4305 35.7067 44.2454 35.8804 44.1197 36.0886L12.0221 89.2224H12.0279C11.9082 89.4158 11.8446 89.6336 11.8431 89.8554C11.8431 97.9331 15.3785 105.68 21.6716 111.392C27.9647 117.104 36.5 120.312 45.3997 120.312C54.2995 120.312 62.8348 117.104 69.1279 111.392C75.421 105.68 78.9564 97.9331 78.9564 89.8554C78.9548 89.6336 78.8913 89.4158 78.7716 89.2224H78.7774L47.8625 38.0493H103.811C104.074 41.4007 105.319 44.6272 107.418 47.3951C109.516 50.163 112.392 52.3717 115.746 53.7925V148.783H94.4751C90.2268 148.787 86.1539 150.321 83.1499 153.047C80.1459 155.774 78.4562 159.471 78.4516 163.327V179.835H72.9775C70.9412 179.834 68.9507 180.383 67.2608 181.414C65.5708 182.445 64.2582 183.911 63.491 185.623C62.7238 187.335 62.5369 189.215 62.9542 191.024C63.3714 192.833 64.3739 194.488 65.8333 195.777H9.06519C8.67824 195.777 8.30714 195.917 8.03353 196.165C7.75992 196.413 7.6062 196.75 7.6062 197.101C7.6062 197.452 7.75992 197.789 8.03353 198.038C8.30714 198.286 8.67824 198.425 9.06519 198.425V198.431ZM203.596 117.669C195.726 117.661 188.16 114.907 182.464 109.978C176.768 105.048 173.377 98.3199 172.994 91.1849H234.198C233.814 98.3188 230.425 105.046 224.73 109.975C219.035 114.905 211.471 117.659 203.601 117.668L203.596 117.669ZM233.228 88.5365H173.969L203.601 39.4821L233.228 88.5365ZM45.3949 117.669C37.5246 117.661 29.959 114.907 24.263 109.977C18.5671 105.048 15.1767 98.3197 14.7932 91.1849H76.0014C75.6176 98.3197 72.227 105.048 66.5309 109.977C60.8348 114.906 53.2691 117.66 45.3988 117.668L45.3949 117.669ZM75.0268 88.5365H15.7678L45.3988 39.483L75.0268 88.5365ZM106.655 36.7251C106.655 33.5218 107.703 30.3906 109.664 27.7275C111.625 25.0644 114.413 22.9889 117.674 21.7636C120.934 20.5382 124.522 20.2179 127.984 20.8433C131.445 21.4687 134.625 23.0115 137.12 25.2769C139.615 27.5422 141.314 30.4282 142.003 33.57C142.691 36.7118 142.337 39.9683 140.987 42.9277C139.636 45.8871 137.349 48.4165 134.414 50.1961C131.479 51.9757 128.029 52.9256 124.5 52.9256C119.768 52.9207 115.232 51.2121 111.886 48.1749C108.54 45.1377 106.659 41.0199 106.655 36.7251ZM130.336 54.8024V148.787H118.664V54.8024C122.474 55.8312 126.532 55.8312 130.342 54.8024H130.336ZM81.3695 163.33C81.3734 160.176 82.7554 157.153 85.2123 154.923C87.6693 152.693 91.0005 151.439 94.4751 151.435H154.524C157.999 151.439 161.33 152.693 163.787 154.923C166.244 157.153 167.626 160.176 167.63 163.33V179.839H81.3695V163.33ZM65.6543 189.135C65.6566 187.373 66.429 185.683 67.8018 184.437C69.1747 183.192 71.036 182.491 72.9775 182.489H176.023C176.984 182.489 177.937 182.661 178.825 182.995C179.714 183.329 180.521 183.818 181.201 184.436C181.881 185.053 182.42 185.786 182.788 186.592C183.156 187.398 183.346 188.263 183.346 189.136C183.346 190.008 183.156 190.873 182.788 191.679C182.42 192.486 181.881 193.218 181.201 193.836C180.521 194.453 179.714 194.942 178.825 195.276C177.937 195.61 176.984 195.782 176.023 195.782H72.9775C71.0358 195.78 69.1743 195.079 67.8014 193.833C66.4286 192.587 65.6564 190.897 65.6543 189.135Z" fill="black"/>
<path d="M150.701 160.01H98.2996C96.655 160.01 95.0779 160.603 93.915 161.658C92.7522 162.714 92.0989 164.145 92.0989 165.638C92.0989 167.13 92.7522 168.562 93.915 169.617C95.0779 170.673 96.655 171.266 98.2996 171.266H150.701C152.346 171.266 153.923 170.673 155.086 169.617C156.249 168.562 156.902 167.13 156.902 165.638C156.902 164.145 156.249 162.714 155.086 161.658C153.923 160.603 152.346 160.01 150.701 160.01ZM150.701 168.617H98.2996C97.4289 168.617 96.594 168.303 95.9783 167.745C95.3627 167.186 95.0168 166.428 95.0168 165.638C95.0168 164.847 95.3627 164.09 95.9783 163.531C96.594 162.972 97.4289 162.658 98.2996 162.658H150.701C151.572 162.658 152.407 162.972 153.023 163.531C153.638 164.09 153.984 164.847 153.984 165.638C153.984 166.428 153.638 167.186 153.023 167.745C152.407 168.303 151.572 168.617 150.701 168.617Z" fill="#19191A"/>
</svg>
