<?xml version="1.0" encoding="utf-8"?>
<!-- Generator: Adobe Illustrator 24.0.0, SVG Export Plug-In . SVG Version: 6.00 Build 0)  -->
<svg version="1.1" xmlns="http://www.w3.org/2000/svg" xmlns:xlink="http://www.w3.org/1999/xlink" x="0px" y="0px"
	 viewBox="0 0 792 612" style="enable-background:new 0 0 792 612;" xml:space="preserve">
<style type="text/css">
	.st0{display:none;opacity:0.35;}
	.st1{display:none;}
	.st2{display:inline;fill:#010202;}
	.st3{fill:url(#SVGID_1_);}
	.st4{fill:url(#SVGID_2_);}
	.st5{fill:none;}
	.st6{fill:#F9B837;}
	.st7{font-family:'Helvetica-Bold';}
	.st8{font-size:41.4016px;}
</style>
<g id="Capa_1" class="st0">
	
		<image style="display:inline;overflow:visible;" width="1024" height="724" xlink:href="../../Downloads/WhatsApp Image 2022-10-17 at 4.39.57 PM.jpeg"  transform="matrix(0.7734 0 0 0.7734 0 26.0156)">
	</image>
</g>
<g id="Capa_3" class="st1">
	<rect x="-47.2" y="-70.9" class="st2" width="921.9" height="753.9"/>
</g>
<g id="Capa_2">
	<g>
		<g>
			<g>
				<radialGradient id="SVGID_1_" cx="420.6034" cy="260.3776" r="258.98" gradientUnits="userSpaceOnUse">
					<stop  offset="0" style="stop-color:#FFEF26"/>
					<stop  offset="0.1006" style="stop-color:#FFE000"/>
					<stop  offset="0.2202" style="stop-color:#FFD300"/>
					<stop  offset="0.3435" style="stop-color:#FECB00"/>
					<stop  offset="0.4749" style="stop-color:#FDC800"/>
					<stop  offset="0.7789" style="stop-color:#F8B442"/>
					<stop  offset="1" style="stop-color:#F9B837"/>
				</radialGradient>
				<path class="st3" d="M100.3,415.8c7.3-8.8,14.6-17.5,21.8-26.3c17.5-21.1,35-42.1,52.4-63.2c21.1-25.4,42.1-50.7,63.2-76.1
					c18.2-21.9,36.4-43.9,54.6-65.8c6-7.3,12.1-14.5,18.1-21.8c2.8-3.4,6-6.7,8.6-10.3c0.1-0.2,0.2-0.3,0.4-0.4c-3.5,0-7.1,0-10.6,0
					c4.9,6.3,9.8,12.5,14.8,18.8c12.4,15.7,24.7,31.5,37.1,47.2c16.1,20.5,32.2,41.1,48.3,61.6c16.4,20.9,32.8,41.8,49.2,62.7
					c13,16.6,26,33.2,39,49.7c4.2,5.3,8.3,10.6,12.5,15.9c1.9,2.5,3.7,5.2,5.9,7.5c2.8,3,6.4,2.6,10,2.6c6.7,0,13.3,0,20,0
					c23.6,0,47.1,0,70.7,0c26.2,0,52.4,0,78.7,0c15.7,0,31.4,0,47.1,0c0.8,0,1.5,0,2.3,0c5.2,0,10-6.6,6.5-11.3
					c-30.6-40.8-61.3-81.5-91.9-122.3c-30.5-40.6-61-81.2-91.5-121.8c-17.3-23-34.5-45.9-51.8-68.9c-2.5-3.4-8.5-5.8-11.8-1.5
					c-33,42.6-65.9,85.2-98.9,127.7s-65.9,85.2-98.9,127.7c-18.5,23.9-37.1,47.9-55.6,71.8c-2.5,3.2-3.1,7.5,0,10.6
					c2.6,2.6,8.1,3.2,10.6,0c33-42.6,65.9-85.2,98.9-127.7s65.9-85.2,98.9-127.7c18.5-23.9,37.1-47.9,55.6-71.8
					c-3.9-0.5-7.9-1-11.8-1.5c30.6,40.8,61.3,81.5,91.9,122.3c30.5,40.6,61,81.2,91.5,121.8c17.3,23,34.5,45.9,51.8,68.9
					c2.2-3.8,4.3-7.5,6.5-11.3c-7.4,0-14.7,0-22.1,0c-17.8,0-35.6,0-53.4,0c-21.4,0-42.9,0-64.3,0c-18.6,0-37.1,0-55.7,0
					c-6.2,0-12.3,0-18.5,0c-2.9,0-5.9-0.2-8.8,0c-0.1,0-0.3,0-0.4,0c1.8,0.7,3.5,1.5,5.3,2.2c-6.9-8.8-13.8-17.5-20.6-26.3
					c-16.5-21.1-33-42.1-49.6-63.2c-19.9-25.4-39.8-50.7-59.7-76.1c-17.2-21.9-34.4-43.9-51.6-65.8c-5.7-7.3-11.4-14.5-17.1-21.8
					c-2.7-3.4-5.2-7-8-10.2c-0.1-0.1-0.2-0.3-0.4-0.5c-2.4-3-8.2-2.8-10.6,0c-7.3,8.8-14.6,17.5-21.8,26.3
					c-17.5,21.1-35,42.1-52.4,63.2c-21.1,25.4-42.1,50.7-63.2,76.1c-18.2,21.9-36.4,43.9-54.6,65.8c-8.9,10.7-17.9,21.3-26.7,32.1
					c-0.1,0.2-0.2,0.3-0.4,0.4c-2.6,3.1-3.1,7.6,0,10.6C92.3,418.5,97.7,418.9,100.3,415.8L100.3,415.8z"/>
			</g>
		</g>
		<g>
			<g>
				<radialGradient id="SVGID_2_" cx="499.8857" cy="317.042" r="101.8347" gradientUnits="userSpaceOnUse">
					<stop  offset="0" style="stop-color:#FFEF26"/>
					<stop  offset="0.1006" style="stop-color:#FFE000"/>
					<stop  offset="0.2202" style="stop-color:#FFD300"/>
					<stop  offset="0.3435" style="stop-color:#FECB00"/>
					<stop  offset="0.4749" style="stop-color:#FDC800"/>
					<stop  offset="0.7789" style="stop-color:#F8B442"/>
					<stop  offset="1" style="stop-color:#F9B837"/>
				</radialGradient>
				<path class="st4" d="M587.9,204c-1.7,1.9-3.3,3.8-5,5.8c-4.5,5.2-9,10.4-13.6,15.7c-6.7,7.7-13.4,15.5-20.1,23.2
					c-8.2,9.4-16.3,18.9-24.5,28.3c-8.9,10.3-17.9,20.7-26.8,31c-9,10.4-18.1,20.9-27.1,31.3c-8.4,9.7-16.8,19.5-25.3,29.2
					c-7.1,8.2-14.2,16.4-21.3,24.7c-5.1,5.9-10.2,11.8-15.4,17.7c-2.4,2.8-4.9,5.6-7.3,8.4c-0.1,0.1-0.2,0.2-0.3,0.4
					c-1.3,1.5-2.2,3.2-2.2,5.3c0,1.8,0.8,4,2.2,5.3c2.8,2.6,7.9,3.2,10.6,0c1.7-1.9,3.3-3.8,5-5.8c4.5-5.2,9-10.4,13.6-15.7
					c6.7-7.7,13.4-15.5,20.1-23.2c8.2-9.4,16.3-18.9,24.5-28.3c8.9-10.3,17.9-20.7,26.8-31c9-10.4,18.1-20.9,27.1-31.3
					c8.4-9.7,16.8-19.5,25.3-29.2c7.1-8.2,14.2-16.4,21.3-24.7c5.1-5.9,10.2-11.8,15.4-17.7c2.4-2.8,4.9-5.6,7.3-8.4
					c0.1-0.1,0.2-0.2,0.3-0.4c1.3-1.5,2.2-3.2,2.2-5.3c0-1.8-0.8-4-2.2-5.3C595.6,201.4,590.6,200.8,587.9,204L587.9,204z"/>
			</g>
		</g>
	</g>
</g>
<g id="Capa_4">
	<rect x="96.4" y="473.6" class="st5" width="583.1" height="40.9"/>
	<text transform="matrix(0.9829 0 0 1 148.2818 503.3556)" class="st6 st7 st8">Soluciones Inmobiliarias</text>
</g>
</svg>
